<svg width="40" height="40" viewBox="0 0 40 40" fill="none" xmlns="http://www.w3.org/2000/svg">
<path d="M13.6244 8.86668C13.6244 8.86668 17.0342 12.0704 20.194 10.3405C23.3538 8.61061 26.8554 8.87765 26.8554 8.87765C26.8554 8.87765 27.1822 17.0385 20.4923 17.0385C12.1896 17.0385 13.6244 8.86668 13.6244 8.86668Z" fill="#9ABFDA"/>
<path d="M13.0078 30.9827V35.3899H26.8273V31.1054C26.8273 31.1054 25.2588 28.4765 19.9757 28.4736C15.2937 28.4712 13.0078 30.9827 13.0078 30.9827Z" fill="#9ABFDA"/>
<path d="M20.1354 27.8716C20.8169 27.8716 21.3694 27.3191 21.3694 26.6376C21.3694 25.956 20.8169 25.4036 20.1354 25.4036C19.4538 25.4036 18.9014 25.956 18.9014 26.6376C18.9014 27.3191 19.4538 27.8716 20.1354 27.8716Z" fill="#9ABFDA"/>
<path d="M21.711 22.5517C21.711 23.4216 21.0062 24.1264 20.1364 24.1264C19.2666 24.1264 18.5622 23.4216 18.5622 22.5517C18.5622 21.6819 16.8611 20.9775 20.1364 20.9775C23.3758 20.9775 21.711 21.6819 21.711 22.5517Z" fill="#9ABFDA"/>
<path d="M29.253 38.4689C28.6888 38.4689 28.2316 38.0117 28.2316 37.4475V28.2848C28.2316 24.6153 24.5982 21.6298 20.1321 21.6298H19.8716C15.405 21.6298 11.7709 24.6153 11.7709 28.2848V37.4479C11.7709 38.0121 11.3136 38.4693 10.7495 38.4693C10.1853 38.4693 9.72803 38.0121 9.72803 37.4479V28.2848C9.72803 23.489 14.2783 19.5874 19.8712 19.5874H20.1317C25.7241 19.5874 30.2736 23.4894 30.2736 28.2848V37.4479C30.274 38.0117 29.8167 38.4689 29.253 38.4689Z" fill="#454B53"/>
<path d="M20.1317 20.8844H19.8712C14.2783 20.8844 9.72803 16.9824 9.72803 12.1866V3.02143C9.72803 2.45726 10.1853 2 10.7495 2C11.3136 2 11.7709 2.45726 11.7709 3.02143V12.1862C11.7709 15.8557 15.4046 18.8415 19.8716 18.8415H20.1321C24.5978 18.8415 28.2316 15.8557 28.2316 12.1862V3.02143C28.2316 2.45726 28.6888 2 29.253 2C29.8171 2 30.2744 2.45726 30.2744 3.02143V12.1862C30.2736 16.9824 25.7241 20.8844 20.1317 20.8844Z" fill="#454B53"/>
<path d="M34.9785 4.04383H5.02143C4.45726 4.04383 4 3.58656 4 3.0224C4 2.45824 4.45726 2.00098 5.02143 2.00098H34.9785C35.5427 2.00098 35.9999 2.45824 35.9999 3.0224C35.9999 3.58656 35.5422 4.04383 34.9785 4.04383Z" fill="#454B53"/>
<path d="M34.9785 38.4691H5.02143C4.45726 38.4691 4 38.0119 4 37.4477C4 36.8835 4.45726 36.4263 5.02143 36.4263H34.9785C35.5427 36.4263 35.9999 36.8835 35.9999 37.4477C35.9999 38.0119 35.5422 38.4691 34.9785 38.4691Z" fill="#454B53"/>
</svg>
