<svg width="320" height="365" viewBox="0 0 320 365" fill="none" xmlns="http://www.w3.org/2000/svg">
<path d="M188.294 330.017C188.294 330.017 196.505 349.895 202.862 355.72C202.862 355.72 207.781 344.077 211.758 330.017C212.817 326.266 188.294 330.017 188.294 330.017Z" fill="white"/>
<path d="M188.698 330.974C189.799 334.684 190.656 337.169 192.669 341.263C193.837 343.418 196.951 350.219 201.479 355.377L202.372 356.3L202.403 356.327C204.63 355.775 203.021 356.165 203.523 356.044V356.031L203.529 356.017L203.565 355.943L203.62 355.795L203.743 355.505L203.981 354.926L204.869 352.697C205.431 351.256 205.927 349.93 206.349 348.798C207.187 346.543 207.695 345.068 207.701 345.068C207.695 345.068 209.812 339.216 211.758 332.617C211.996 331.721 212.241 331.109 212.48 329.971C212.156 327.789 210.705 328.159 210.063 327.836C208.423 327.546 206.888 327.553 205.48 327.567C202.666 327.614 200.384 327.823 199.24 327.917C195.03 328.321 192.675 328.893 189.242 329.876C192.791 329.897 195.177 329.863 199.35 329.486C200.482 329.398 202.752 329.196 205.499 329.149C206.863 329.136 208.374 329.149 209.818 329.398C210.516 329.425 211.293 330.052 211.048 329.796C210.92 330.341 210.601 331.371 210.387 332.126C208.46 338.678 206.361 344.496 206.368 344.496C206.361 344.496 205.854 345.957 205.022 348.199C204.599 349.324 204.104 350.644 203.547 352.071L202.666 354.28L202.433 354.852L202.311 355.135L202.256 355.276L202.225 355.35L202.219 355.364L202.213 355.377C202.709 355.256 201.1 355.653 203.321 355.108L203.296 355.081L202.489 354.246C198.242 349.425 195.061 342.603 193.923 340.502C191.91 336.462 190.625 334.247 188.698 330.974Z" fill="#1F1D1D"/>
<path d="M172.404 4.14688C172.404 4.14688 231.978 -1.45567 252.695 32.7522C287.282 89.8752 242.875 173.732 290.58 182.762C319.318 188.203 319.404 161.348 318.578 156.715C317.758 152.076 322.781 181.395 292.226 195.125C254.341 212.148 222.458 194.984 222.458 194.984C222.458 194.984 205.027 179.348 205.749 175.61C238.341 7.39256 152.537 39.6544 172.404 4.14688Z" fill="white"/>
<path d="M172.759 4.12044C186.77 3.54132 198.585 4.65912 210.742 7.35938C222.612 10.3829 236.078 14.3828 247.881 27.3656C253.999 34.3621 263.366 52.4693 265.532 76.7986C266.848 88.8724 266.719 102.178 266.297 115.848C266.003 129.498 264.939 143.713 267.251 157.49C268.402 164.305 270.861 171.113 275.474 175.86C279.959 180.776 286.09 182.729 291.676 183.739C297.311 184.675 303.099 184.533 307.981 182.109C312.919 179.779 316.272 175.059 317.801 170.392C319.38 165.678 319.765 161.099 319.355 157.039L319.233 156.278C319.227 156.244 319.196 156.083 319.153 155.962C319.111 155.874 319.215 156.022 319.043 155.746C317.324 155.153 317.826 156.797 317.752 156.224V156.339C317.746 156.507 317.746 156.595 317.746 156.722L317.728 158.083C317.697 158.972 317.63 159.827 317.55 160.648C317.391 162.285 317.128 163.766 316.841 165.093C315.666 170.399 314.173 173.072 314.234 173.086C314.259 172.635 309.945 185.866 293.487 193.658C277.677 201.583 252.739 205.671 228.938 196.896C222.648 195.428 218.58 190.217 213.783 185.557C211.525 183.173 209.231 180.742 207.45 178.055C206.38 176.547 206.318 175.766 206.814 173.84L207.756 168.783C210.167 155.322 212.015 142.124 212.988 129.929C215.184 105.518 213.14 85.2698 210.913 75.499C207.169 57.3177 199.594 44.2675 190.074 35.2846C185.369 30.6921 180.138 27.204 175.182 23.0829C172.79 21.0021 170.275 18.5174 169.663 14.9754C169.088 11.4334 170.502 7.78365 172.221 4.4908C170.41 7.72304 168.856 11.3256 169.345 15.0292C169.884 18.7665 172.441 21.4264 174.797 23.6014C179.716 27.9312 184.819 31.5204 189.377 36.1465C198.585 45.2035 205.829 57.9372 209.518 75.8492C211.703 85.4718 213.74 105.505 211.556 129.787C210.583 141.915 208.741 155.059 206.343 168.473L205.407 173.51C205.315 174.486 204.936 174.897 205.089 176.345C205.315 177.469 205.805 178.21 206.263 178.964C208.197 181.873 210.497 184.277 212.792 186.708C217.35 191.213 222.098 196.923 228.485 198.398C252.671 207.32 277.983 203.166 294.062 195.105C310.967 187.132 315.58 173.308 315.519 173.779C315.458 173.766 317.006 170.978 318.236 165.456C318.535 164.076 318.805 162.527 318.976 160.823C319.056 159.968 319.129 159.073 319.16 158.143L319.184 156.729C319.184 156.615 319.178 156.467 319.184 156.399V156.339C318.921 156.325 317.826 156.372 317.826 156.568C317.814 156.561 317.814 156.514 317.826 156.601L317.936 157.268C318.315 160.945 317.948 165.436 316.461 169.826C315.005 174.217 311.952 178.506 307.4 180.661C302.885 182.91 297.366 183.085 291.884 182.17C286.463 181.186 280.644 179.314 276.466 174.709C272.152 170.284 269.784 163.833 268.665 157.18C266.401 143.76 267.435 129.551 267.741 115.902C268.157 102.212 268.291 88.8185 266.964 76.6168C264.755 51.9845 255.302 33.5877 248.927 26.2882C236.702 12.8812 222.967 9.0294 210.944 6.22141C198.64 3.76355 186.752 3.04303 172.759 4.12044Z" fill="#1F1D1D"/>
<path d="M83.6938 170.715C83.6938 170.715 90.5709 156.898 93.5016 163.369C96.4323 169.84 101.058 182.87 98.1148 183.678C95.1719 184.486 88.5151 181.234 86.1044 175.975C83.6938 170.715 83.6938 170.715 83.6938 170.715Z" fill="#ED1D24"/>
<path d="M83.8775 170.358C85.56 168.264 86.643 166.81 88.5886 164.48C89.0659 163.988 90.3874 162.358 91.6722 162.5C92.8164 162.695 93.6791 165.853 94.5969 167.873C96.3834 172.351 97.5459 176.587 97.5092 176.587C97.5092 176.587 97.8151 177.644 98.1027 179.287C98.1883 180.937 99.1 183.583 96.7321 182.977C92.5288 182.54 88.6865 178.829 87.8911 177.523C86.2697 175.106 85.4499 173.22 83.8652 171.085C84.6912 173.772 84.8747 175.577 86.7776 178.513C87.7626 180.028 91.709 184.014 96.6404 184.56C97.295 184.533 97.8396 184.62 98.6227 184.27C99.5344 183.765 99.6139 182.816 99.7363 182.216C99.822 180.937 99.669 179.88 99.516 178.998C99.204 177.233 98.8858 176.156 98.8858 176.156C98.9164 176.143 97.7294 171.786 95.9245 167.247C94.7498 165.187 94.7621 162.19 91.9354 160.938C89.1454 160.884 88.2215 162.911 87.5546 163.389C85.4621 165.934 84.783 167.745 83.8775 170.358Z" fill="#1F1D1D"/>
<path d="M122.026 346.037L118.202 353.215C118.202 353.215 147.515 353.437 154.526 353.283C161.538 353.121 133.498 343.229 133.498 343.229L122.026 346.037Z" fill="#100F0D"/>
<path d="M121.867 346.334C120.717 347.99 119.768 349.391 118.814 350.913L118.098 352.084L117.737 352.691L117.645 352.852C117.15 351.896 118.312 354.152 118.196 353.923H118.202H118.214H118.232H118.275L118.361 353.93L118.71 353.95C119.64 353.99 120.643 354.017 121.769 354.024C126.645 354.091 151.07 354.165 151.076 354.111C151.106 354.098 152.538 354.138 155.041 354.031C155.126 353.869 156.356 354.354 156.283 352.468C155.867 351.701 155.591 351.701 155.255 351.398C154.618 350.973 153.951 350.61 153.248 350.26C151.841 349.553 150.305 348.879 148.733 348.213C142.253 345.728 135.841 342.751 132.733 342.61C128.34 343.701 125.899 344.576 122.326 345.963C126.101 345.559 128.646 345.216 133.045 344.152C134.636 344.219 142.125 347.25 148.212 349.694C149.773 350.354 151.296 351.014 152.648 351.701C153.321 352.037 153.964 352.387 154.496 352.738C154.833 352.805 154.79 353.35 155.23 352.96C155.695 352.967 155.096 352.664 155.151 352.414C155.059 352.421 155.034 352.462 154.881 352.462C152.661 352.556 151.039 352.522 151.07 352.536C151.07 352.583 126.651 352.488 121.775 352.448C120.649 352.448 119.646 352.455 118.716 352.489L118.367 352.495L118.281 352.502H118.239H118.22H118.208H118.202C118.086 352.273 119.248 354.522 118.753 353.573L118.759 353.566L118.838 353.404L119.144 352.758L119.719 351.499C120.466 349.842 121.108 348.246 121.867 346.334Z" fill="#1F1D1D"/>
<path d="M99.6814 296.456C99.6814 296.456 88.24 318.684 92.7064 342.529C97.1667 366.38 25.1425 342.529 23.8674 344.637C22.593 346.744 29.3777 333.081 29.3777 333.081C29.3777 333.081 76.7681 348.145 80.5921 339.728C84.416 331.31 70.4906 295.042 55.0387 289.911C39.5886 284.779 72.8401 231.064 115.014 260.039C141.146 277.992 147.839 274.059 150.702 282.2C152.036 285.978 133.406 335.775 133.498 343.229C133.583 350.461 122.026 346.037 122.026 346.037C122.026 346.037 135.247 302.638 137.322 290.941C138.49 284.349 108.216 291.547 99.6814 296.456Z" fill="#3A1E16"/>
<path d="M99.6812 296.456C93.8749 308.557 91.2073 320.139 91.1889 332.408C91.2073 335.479 91.4765 338.597 91.9782 341.761C92.6573 344.825 92.2046 347.997 89.6165 349.694C84.5321 352.892 77.4837 352.589 70.2274 352.138C62.1866 351.687 46.3707 348.489 27.0329 344.058L25.1436 343.761C24.7979 343.728 24.4944 343.701 24.0019 343.755C23.5351 343.869 23.1098 344.334 23.2879 344.192C23.491 344.219 22.8168 344.199 23.9732 344.058C24.9282 345.66 24.1609 344.825 24.4289 344.987L24.5165 344.785C25.0469 343.593 25.6606 342.341 26.2565 341.102C27.4624 338.617 28.7057 336.092 29.9728 333.539L30.0028 333.479C30.1882 333.364 28.4603 334.199 29.2214 333.863L29.3426 333.896L29.5831 333.97L30.0634 334.125L31.027 334.415L32.9665 335.001L36.8878 336.139C39.5199 336.886 42.1875 337.607 44.882 338.3C55.692 340.644 66.8134 344.367 78.3404 342.361C79.7048 342.051 81.473 340.57 81.6443 338.819C82.0114 337.182 81.9869 335.587 81.8707 334.038C81.6015 330.947 80.9345 327.991 80.133 325.142C78.4872 319.452 76.2785 314.159 73.7699 309.318C68.814 299.823 62.2019 291.278 54.4261 288.766C51.0983 287.015 51.7542 282.268 52.6193 279.339C53.6013 276.174 55.0067 273.622 56.2861 271.669C58.8454 267.723 60.7825 265.939 60.7457 265.912C60.7317 266.329 67.4497 256.599 82.7884 253.036C90.3262 251.393 99.7547 252.457 108.7 257.191C117.437 262.161 126.59 269.164 136.997 273.635C141.751 276.201 148.689 277.191 150.041 282.679C149.338 288.288 147.111 294.348 145.434 300.012C141.812 311.486 138.056 322.55 135.045 332.9C134.305 335.499 133.595 338.038 133.094 340.623C132.604 343.465 133.032 345.775 130.824 346.26C128.958 346.859 126.804 346.509 124.883 346.078L123.445 345.687L122.741 345.465L122.405 345.344L122.319 345.317L122.282 345.297C121.866 344.401 122.796 346.509 122.711 346.266L122.772 346.078L123.684 343.061C126.045 335.216 127.905 328.873 129.135 324.644C131.399 316.826 133.357 309.836 135.058 303.305C135.908 300.039 136.691 296.887 137.364 293.783L137.823 291.446C138.092 290.726 137.805 289.19 136.973 288.766C135.492 287.783 134.036 287.837 132.629 287.736C121.463 288.328 111.08 290.988 99.6812 296.456C111.196 291.46 121.732 289.204 132.592 288.894C133.895 288.982 135.382 289.096 136.318 289.79C137.236 290.221 136.416 291.931 136.19 293.466C135.48 296.524 134.66 299.655 133.785 302.894C132.029 309.385 130.034 316.361 127.771 324.166C126.541 328.388 124.675 334.725 122.313 342.563L121.408 345.573L121.346 345.768C121.236 345.566 122.191 347.687 121.811 346.798L121.86 346.812L121.952 346.845L122.325 346.98L123.059 347.209L124.577 347.627C126.633 348.064 128.854 348.515 131.264 347.768C132.439 347.425 133.748 346.3 134.042 344.765C134.281 343.176 134.213 342.219 134.507 340.94C134.984 338.482 135.688 335.95 136.416 333.385C139.414 323.095 143.171 312.025 146.793 300.537C148.481 294.665 150.69 289.204 151.485 282.578C150.727 278.861 147.937 276.82 145.33 275.622C142.712 274.383 140.099 273.352 137.554 272.174C127.183 267.71 118.373 260.922 109.312 255.757C100.128 250.888 90.3384 249.771 82.5253 251.481C66.6359 255.178 59.7356 265.225 59.7375 264.794C59.7748 264.827 57.779 266.659 55.1162 270.76C53.7861 272.794 52.3134 275.447 51.2568 278.847C50.3806 281.851 49.3234 287.594 53.7849 290.18C61.4072 292.652 67.5536 300.712 72.5218 310.099C74.9813 314.853 77.1534 320.065 78.7564 325.62C79.5457 328.395 80.182 331.27 80.4389 334.179C80.598 337.048 80.6408 340.334 77.9059 340.846C67.3517 342.704 55.8333 339.129 45.2094 336.751C42.5265 336.065 39.8699 335.344 37.2469 334.597L33.3422 333.465L31.4119 332.886L30.4537 332.59L29.9765 332.449L29.7385 332.368L29.621 332.334C30.3485 331.997 28.5607 332.772 28.7363 332.718L28.7069 332.779C27.438 335.337 26.1935 337.863 24.9839 340.354C24.3794 341.613 23.7853 342.819 23.2096 344.112L23.0988 344.374C23.3301 344.617 22.5365 343.862 23.4824 345.553C24.599 345.553 23.986 345.431 24.2374 345.384L24.3971 345.182C24.1977 344.98 24.9484 345.472 23.9664 344.711L24.2154 344.906C24.6058 345.377 24.2925 345.263 24.2901 345.303C24.4118 345.317 24.7428 345.303 25.0114 345.344C25.5988 345.411 26.1953 345.505 26.7967 345.62C46.0011 350.024 62.0031 353.263 70.1234 353.707C77.5144 354.105 84.5688 354.569 90.3568 350.913C93.4527 348.946 93.9972 344.529 93.1651 341.512C92.6329 338.435 92.3147 335.398 92.2351 332.381C92.021 320.348 94.2848 308.779 99.6812 296.456Z" fill="#1F1D1D"/>
<path d="M76.3516 167.133C76.3516 167.133 120.997 236.08 122.594 280.099C122.955 289.911 48.0162 292.712 45.4673 289.91C42.9178 287.109 47.3793 172.708 62.042 167.813C79.5026 161.981 76.3516 167.133 76.3516 167.133Z" fill="#3A1E16"/>
<path d="M76.6333 167.577C84.783 181.597 90.0631 191.28 98.8246 208.653C103.132 218.054 118.373 246.76 121.628 276.274C121.603 277.951 122.24 280.362 121.469 281.055C120.582 282.146 118.972 282.84 117.541 283.453C114.53 284.584 111.435 285.304 108.461 285.91C102.496 287.075 96.9401 287.762 92.2229 288.274C82.7761 289.25 76.6516 289.533 76.6516 289.54C76.6577 289.52 70.5394 289.984 61.0535 290.126C58.6826 290.159 56.1019 290.16 53.3615 290.085C51.9928 290.045 50.5807 289.991 49.1514 289.87C47.9657 289.729 45.6193 289.641 45.9179 288.974C45.2302 282.577 45.5594 275.15 45.7135 267.796C46.5291 238.134 50.2154 205.966 52.3036 195.468C54.0994 185.799 55.6712 178.055 58.8888 171.759C60.2973 168.237 63.685 167.725 66.9479 166.661C68.5632 166.156 70.2213 165.712 71.9466 165.388C73.3722 165.308 76.1928 164.345 76.5354 166.627C76.2907 164.244 73.3416 165.052 71.9038 165.032C70.1417 165.254 68.4469 165.597 66.8011 166.008C65.143 166.405 63.5394 166.89 61.9303 167.361C60.1321 167.994 58.9549 169.577 58.0041 171.132C54.4022 177.651 52.7319 185.415 50.8976 195.172C48.7813 205.758 45.0882 237.999 44.2733 267.743C44.1326 275.217 43.7605 282.368 44.5113 289.304C44.4966 289.614 44.8459 290.638 45.5153 290.819C46.0225 291.035 46.3688 291.082 46.7806 291.17C47.5515 291.304 48.3034 291.385 49.0376 291.446C50.5121 291.574 51.939 291.627 53.3236 291.668C56.0927 291.742 58.6875 291.735 61.07 291.708C70.6006 291.56 76.7312 291.096 76.7312 291.116C76.7312 291.102 82.874 290.826 92.3575 289.843C97.0992 289.331 102.679 288.644 108.718 287.466C111.734 286.853 114.867 286.133 118.018 284.948C119.566 284.247 121.212 283.682 122.582 282.059C123.989 279.722 122.9 278.025 123.059 276.126C119.725 246.053 104.417 217.367 100.079 207.899C91.2684 190.472 85.5416 181.024 76.6333 167.577Z" fill="#1F1D1D"/>
<path d="M124.883 115.485C128.102 139.342 107.544 162.466 78.9711 167.133C50.3959 171.8 24.6235 156.238 21.4077 132.38C18.1907 108.522 38.7484 85.3978 67.3218 80.7313C95.8945 76.0647 121.671 91.6266 124.883 115.485Z" fill="#FBC589"/>
<path d="M124.884 115.484C125.74 130.339 120.943 140.898 108.958 152.311C105.623 155.321 98.2688 160.884 87.9777 164.143C77.7906 167.49 64.8258 168.325 53.1789 164.985C41.4622 161.847 31.6856 154.002 27.1745 146.211C22.3263 138.527 22.3459 132.123 22.1159 132.265C22.2786 132.332 20.749 126.225 23.219 117.296C25.5495 108.414 32.8108 97.7944 43.1869 91.0336C53.4278 84.0237 66.08 80.7847 76.7137 80.7443C87.4086 80.5895 95.9254 83.5254 99.8962 85.357C107.379 88.6229 112.525 92.9325 116.575 97.7001C120.558 102.542 123.532 108.117 124.884 115.484C122.632 100.838 115.376 91.0942 100.435 83.8958C96.3537 82.0035 87.6228 79.0002 76.6954 79.1551C65.8414 79.2022 52.9323 82.4951 42.435 89.6801C31.808 96.6024 24.2842 107.545 21.8485 116.824C19.2696 126.151 20.8665 132.575 20.7001 132.494C20.9313 132.339 20.9308 139.073 25.9858 147.093C30.703 155.234 40.8173 163.308 52.8154 166.52C64.7523 169.941 77.9802 169.085 88.3815 165.665C98.8928 162.338 106.437 156.635 109.857 153.537C122.204 141.847 126.713 130.245 124.884 115.484Z" fill="#1F1D1D"/>
<path d="M102.838 116.501C102.838 118.421 101.424 119.976 99.6807 119.976C97.937 119.976 96.5298 118.421 96.5298 116.501C96.5298 114.582 97.937 113.034 99.6807 113.034C101.424 113.034 102.838 114.582 102.838 116.501Z" fill="#100F0D"/>
<path d="M102.838 116.502C102.257 117.505 101.902 117.828 101.278 118.488C100.984 118.859 99.5344 119.552 98.4087 118.717C97.2523 117.949 97.2951 116.448 97.2462 116.502C97.2951 116.562 97.2523 115.061 98.4087 114.293C99.5283 113.458 100.984 114.152 101.278 114.522C101.902 115.175 102.257 115.505 102.838 116.502C103.187 115.485 103.23 114.387 102.226 113.337C101.786 112.724 99.4365 111.593 97.6316 112.96C95.79 114.199 95.8512 116.596 95.8145 116.502C95.8512 116.414 95.79 118.811 97.6316 120.05C99.4365 121.417 101.792 120.286 102.226 119.667C103.23 118.623 103.187 117.525 102.838 116.502Z" fill="#1F1D1D"/>
<path d="M91.4276 105.431C91.4276 105.431 112.695 94.1181 121.499 104.333C130.31 114.548 121.096 83.4382 99.6813 79.6538C63.3841 73.2432 26.4169 85.2227 21.0431 119.976C16.5125 149.275 40.4384 167.961 51.9116 167.961C60.7954 167.961 64.6598 167.813 64.6598 167.813C64.6598 167.813 57.6475 145.511 67.2111 145.511C72.9685 145.511 81.2284 142.305 81.2284 142.305C81.2284 142.305 64.0204 101.923 91.4276 105.431Z" fill="#C99155"/>
<path d="M91.4276 105.43C98.4331 102.306 104.766 100.488 111.386 100.676C114.647 100.858 118.104 101.794 120.673 104.515C121.353 105.134 121.995 106.057 122.974 106.69C123.323 106.919 124.375 107.653 125.213 106.501C125.672 105.565 125.489 104.952 125.44 104.326C125.03 101.888 124.045 99.7202 122.888 97.4981C120.429 93.0133 114.163 82.9193 101.933 79.3436C89.9959 76.8184 75.5627 76.2394 62.1072 79.2022C48.6547 81.9766 36.5893 89.1414 30.1956 97.3095C23.666 105.383 22.1732 112.488 22.0949 112.366C22.2234 112.326 19.4046 118.885 19.8451 129.679C20.0709 140.392 26.2988 154.796 38.0277 163.146C47.9976 172.19 72.5096 171.826 62.9227 154.399C62.8665 151.342 63.2201 147.813 65.345 146.796C67.2662 145.982 70.4049 146.359 72.5218 145.672C74.8101 145.207 76.8292 144.615 78.5852 144.056C79.454 143.773 80.2616 143.497 80.9958 143.227L81.2711 143.126L81.4057 143.073L81.4363 143.059L81.4546 143.052C81.6443 142.574 81.0631 144.13 81.8768 141.968L81.8523 141.901L81.6382 141.382L81.2528 140.399C77.906 131.261 76.0216 123.491 76.6089 116.265C76.9332 112.717 78.2976 109.195 81.1916 107.343C84.0121 105.417 87.6831 105.127 91.4276 105.43C87.7076 104.885 83.9877 104.899 80.8857 106.764C77.698 108.562 76.0155 112.38 75.5688 116.11C74.7123 123.733 76.5416 131.692 79.9373 141.012L80.3289 142.015L80.5491 142.568L80.5797 142.635C81.4057 140.487 80.8 142.042 80.9774 141.564L80.9652 141.571L80.9346 141.584L80.8061 141.632L80.543 141.733C79.8272 141.988 79.0379 142.264 78.1813 142.541C76.4621 143.086 74.4797 143.665 72.2588 144.116C69.9582 144.857 67.8229 144.224 64.7026 145.382C61.5938 147.126 61.4788 151.274 61.4819 154.459C61.611 157.86 62.2473 161.308 63.0836 164.782L63.7806 167.395L63.9763 168.055C63.8448 168.304 65.2104 166.075 64.6108 167.018H64.5741L64.5007 167.025H64.3471L64.0399 167.038L62.8071 167.065L57.8017 167.139C54.4157 167.052 50.9888 167.537 47.8416 166.493C44.6386 165.53 41.5953 163.84 38.8237 161.826C27.4797 153.739 21.4916 139.867 21.278 129.585C20.8498 119.208 23.5718 112.831 23.4476 112.878C23.5247 112.993 24.9607 106.158 31.259 98.3735C37.4202 90.4949 49.1558 83.4849 62.3892 80.7577C75.5749 77.8352 89.9715 78.4278 101.59 80.8857C113.178 84.2459 119.309 93.9897 121.652 98.2926C122.76 100.394 123.708 102.548 124.057 104.562C124.149 105.026 124.112 105.612 124.063 105.646C124.369 105.875 123.996 105.491 123.659 105.39C122.931 104.932 122.356 104.158 121.591 103.464C118.624 100.434 114.812 99.5788 111.422 99.5249C104.521 99.599 98.2618 101.848 91.4276 105.43Z" fill="#1F1D1D"/>
<path d="M69.7569 152.042C75.5571 155.786 57.9331 157.402 55.3836 145.51C52.8335 133.618 65.2965 135.625 65.2965 135.625C65.2965 135.625 58.2849 144.649 69.7569 152.042Z" fill="#FBC589"/>
<path d="M69.7569 152.042C71.0723 153.167 70.644 154.009 69.4203 154.009C68.3557 154.116 67.181 154.049 65.6942 153.833C64.2007 153.679 58.8704 152.184 56.8905 147.638C54.7008 143.059 56.4812 138.716 56.6941 139.046C56.3485 138.864 59.4413 135.76 64.2234 136.319L65.0641 136.393L65.1558 136.406L65.1803 136.413H65.1864C64.9906 135.834 65.633 137.706 64.7459 135.113L64.7398 135.127L64.6908 135.188L64.5378 135.403L64.2638 135.841C63.9046 136.42 63.6122 137.039 63.3479 137.659C62.8247 138.911 62.5488 140.251 62.487 141.49C62.334 144.029 63.2365 145.955 63.6458 146.824C65.5045 149.955 67.334 150.918 69.7569 152.042C67.799 150.063 66.4713 148.743 64.8927 146.042C64.5501 145.288 63.7957 143.692 63.9273 141.578C63.9793 140.541 64.2063 139.396 64.6664 138.312C64.8927 137.767 65.1497 137.221 65.4617 136.723L65.6942 136.359L65.8105 136.191L65.8349 136.15L65.8411 136.144C64.9539 133.544 65.5902 135.423 65.3944 134.844L65.3822 134.837H65.3516L65.2293 134.817L64.3011 134.736C59.2486 133.989 55.1406 137.787 55.531 138.123C55.1988 137.854 53.0537 143.295 55.6099 148.366C57.9894 153.679 63.8667 155.221 65.4862 155.396C67.1198 155.618 68.4475 155.551 69.6712 155.126C70.2157 154.83 71.06 154.628 71.1702 153.557C71.0784 152.594 70.3075 152.359 69.7569 152.042Z" fill="#1F1D1D"/>
<path d="M29.3779 333.082L23.7092 326.563L4.11084 357.963C4.11084 357.963 22.2328 348.307 23.8677 344.637C25.5043 340.967 29.3779 333.082 29.3779 333.082Z" fill="#100F0D"/>
<path d="M29.0165 332.671C27.9348 331.061 27.0152 329.721 25.994 328.354C25.4831 327.674 24.9472 326.987 24.3525 326.253L24.2405 326.112L24.2123 326.078L24.1977 326.058H24.194C24.4204 326.031 22.2257 326.233 23.1539 326.152H23.1521L23.1459 326.159L23.0957 326.233L22.8921 326.543L22.4748 327.182C22.1915 327.62 21.8984 328.078 21.5919 328.563C18.9347 332.799 5.68474 354.05 5.68474 354.05C5.68474 354.05 4.85568 355.377 3.5696 357.438L3.54027 357.485L3.52497 357.505L3.52067 357.512C2.7106 356.481 4.6195 358.926 4.42677 358.677L4.43842 358.67L4.53755 358.616L4.7358 358.508L5.14389 358.286L6.00225 357.815C6.59145 357.491 7.21736 357.148 7.8659 356.778C9.16667 356.057 10.5629 355.242 11.9885 354.407C17.5623 350.98 24.0319 347.243 24.9362 344.044C26.8806 339.822 27.8308 337.324 29.1303 333.586C27.0232 336.852 25.6386 339.088 23.658 343.337C23.2524 345.714 16.852 349.667 11.3069 353.014C9.89171 353.842 8.50468 354.65 7.21248 355.37C6.56761 355.734 5.94535 356.077 5.35982 356.401L4.50881 356.872L4.10436 357.087L3.90856 357.195L3.81249 357.242L3.8003 357.249C3.60084 357 5.50974 359.444 4.70395 358.407L4.70825 358.401L4.72295 358.38L4.75289 358.326C6.03713 356.273 6.86498 354.946 6.86498 354.946C6.86498 354.946 20.1345 333.708 22.7715 329.459L23.6299 328.051L24.0208 327.398L24.2081 327.075L24.254 327.001L24.2601 326.987H24.2613C25.1901 326.9 22.9973 327.095 23.2243 327.081H23.2273L23.2432 327.102L23.2738 327.129L23.3937 327.263C24.0343 327.943 24.6376 328.563 25.2354 329.156C26.4303 330.341 27.605 331.411 29.0165 332.671Z" fill="#1F1D1D"/>
<path d="M65.3094 187.024C65.3094 187.024 76.7691 216.263 109.16 223.367C111.803 223.946 100.104 213.044 92.0711 199.098C85.4755 187.657 78.9717 167.133 78.9717 167.133C78.9717 167.133 60.9641 166.863 65.3094 187.024Z" fill="#6F4420"/>
<path d="M65.3078 187.024C67.9387 193.886 70.4962 198.35 76.1312 204.855C79.0558 208.424 89.5427 218.121 101.412 221.946C102.856 222.485 104.319 222.909 105.738 223.326L107.861 223.858L108.895 224.114C108.913 224.134 109.837 224.296 110.088 223.724C110.412 222.586 110.015 222.646 109.99 222.377C108.234 219.65 106.515 217.906 105.102 216.087C102.263 212.619 100.519 210.31 100.519 210.31C100.623 210.256 93.0547 201.361 88.0498 189.3C85.4495 183.348 83.0633 176.93 81.1789 171.442C80.7016 170.068 80.2611 168.755 79.8573 167.523L79.7105 167.065C79.3739 166.762 80.359 167.409 78.9396 166.338L78.7009 166.345L77.8138 166.398C77.2325 166.439 76.688 166.54 76.168 166.614C74.0755 166.971 72.4602 167.644 71.414 168.156C67.486 170.021 65.3323 173.516 64.6532 176.829C63.9722 180.21 64.4084 183.455 65.3078 187.024C64.4757 180.008 64.8612 173.388 72.0013 169.59C72.9558 169.132 74.4426 168.506 76.3943 168.176C76.8838 168.109 77.3916 168.015 77.9239 167.981L78.7377 167.927H78.9335C77.6486 166.87 78.6214 167.765 78.3522 167.59L78.5052 168.055C78.909 169.301 79.3495 170.621 79.8267 172.001C81.7234 177.523 84.1279 183.974 86.7527 189.987C91.8432 202.249 99.5462 211.293 99.4178 211.32C99.4178 211.32 101.18 213.656 104.031 217.145C105.389 218.862 107.31 220.963 108.718 223.118C108.871 223.306 108.583 223.272 109.256 223.084C109.69 223.636 108.865 222.444 109.177 222.572C109.299 222.559 109.317 222.606 109.183 222.559L108.167 222.309L106.093 221.791C104.698 221.38 103.272 220.969 101.859 220.437C90.2585 216.693 80.0164 207.226 77.1407 203.744C71.622 197.388 68.7525 193.428 65.3078 187.024Z" fill="#1F1D1D"/>
<path d="M76.352 171.335C76.352 171.335 55.4816 167.645 55.2442 175.294C55.0062 182.944 56.616 197.105 61.9707 194.876C67.3274 192.647 75.8747 183.813 76.1133 177.577C76.3519 171.335 76.352 171.335 76.352 171.335Z" fill="#ED1D24"/>
<path d="M75.7214 171.234C72.5032 170.264 70.2577 169.732 66.2502 169.665C65.1611 169.678 62.9787 169.631 60.3032 170.177C58.9859 170.52 57.4728 170.837 56.1255 172.029C54.6063 173.146 54.3989 175.618 54.5047 177.065C54.4601 183.671 55.9046 189.563 55.9732 189.55C56.0037 189.543 56.2448 191.045 57.3437 193.206C57.9274 194.19 58.8781 195.678 60.672 195.86C62.4666 195.846 63.6468 194.876 64.9959 194.082C70.2516 190.634 74.4059 184.836 75.3665 182.594C77.459 178.406 76.4434 175.537 76.3271 172.035C75.5379 175.651 75.9906 178.264 74.1123 181.833C73.2618 183.846 69.2298 189.462 64.2507 192.722C63.0674 193.483 61.6657 194.345 60.7663 194.277C59.8075 194.217 59.0709 193.254 58.5741 192.392C57.6288 190.547 57.3638 189.079 57.3455 189.099C57.2904 189.153 55.904 183.503 55.945 177.052C55.3466 173.55 58.0014 172.224 60.5772 171.732C63.0564 171.22 65.1978 171.261 66.2441 171.241C70.1476 171.288 72.3869 171.261 75.7214 171.234Z" fill="#1F1D1D"/>
<path d="M86.6434 172.197C87.9895 176.122 86.3925 180.425 83.0764 181.806C79.7541 183.186 75.973 181.119 74.6269 177.2C73.2809 173.274 74.8778 168.978 78.1939 167.597C81.5101 166.217 85.2913 168.278 86.6434 172.197Z" fill="#ED1D24"/>
<path d="M86.6428 172.196C86.8019 174.385 86.6489 175.799 85.8229 177.906C85.6149 179.085 82.8372 182.358 79.5455 181.233C76.315 180.324 75.2993 176.762 75.2932 176.917C75.3911 177.031 74.0083 173.624 75.8928 170.594C77.6794 167.355 81.7358 167.786 82.5985 168.513C84.483 169.496 85.4497 170.445 86.6428 172.196C86.3063 170.068 85.5231 168.304 83.1737 167.072C82.1397 166.142 76.9451 165.611 74.6936 169.705C72.3686 173.503 74.0634 177.617 73.9594 177.476C73.9532 177.294 75.1525 181.617 79.1784 182.768C83.3327 184.203 86.9059 180.021 87.12 178.566C88.1418 175.933 87.6707 174.041 86.6428 172.196Z" fill="#1F1D1D"/>
<path d="M76.3516 213.199C76.3516 213.199 116.88 231.73 152.801 174.951C155.652 170.446 158.35 182.23 158.35 182.23C158.35 182.23 116.757 233.784 83.6936 227.986L76.3516 213.199Z" fill="#3A1E16"/>
<path d="M76.3516 213.199C84.6297 216.654 91.0295 217.597 101.657 216.061C104.521 215.583 110.284 214.25 116.782 211.071C123.298 207.947 130.346 202.823 136.305 196.971C148.408 185.921 155.627 168.817 155.48 176.183C155.48 176.177 155.933 176.951 156.502 178.54C156.796 179.328 157.108 180.325 157.42 181.483L157.646 182.379C157.854 181.2 157.359 182.473 157.236 182.412C156.808 182.924 156.355 183.456 155.878 184.008C152.054 188.446 146.645 194.244 140.637 199.866C128.768 211.422 113.698 220.815 108.308 222.876C98.549 227.031 92.5469 228.687 83.6936 227.987C92.4429 229.704 98.9222 228.566 108.852 224.33C114.371 222.236 129.624 212.708 141.567 201.078C147.624 195.409 153.064 189.577 156.918 185.099C157.402 184.533 157.86 183.995 158.295 183.483C158.558 182.897 158.601 183.698 159.035 181.988L158.797 181.039C158.472 179.833 158.142 178.796 157.836 177.954C157.23 176.271 156.71 175.362 156.704 175.362C156.539 175.47 156.649 174.197 154.428 173.173C151.522 173.779 151.357 176.54 149.387 178.769C146.052 183.638 141.206 190.008 135.351 195.786C129.477 201.543 122.57 206.566 116.2 209.624C109.843 212.728 104.227 214.028 101.425 214.506C91.0662 216.007 84.905 215.684 76.3516 213.199Z" fill="#1F1D1D"/>
<path d="M242.441 45.5332C245.763 64.8256 229.721 84.3807 206.606 89.1954C183.497 94.0168 162.07 82.2797 158.748 62.9805C155.426 43.6881 171.468 24.1398 194.577 19.3184C217.692 14.497 239.119 26.234 242.441 45.5332Z" fill="#FBC589"/>
<path d="M242.442 45.5334C243.384 57.587 239.872 66.2736 230.456 75.9367C227.855 78.5157 222.031 83.2564 213.795 86.2866C205.627 89.3707 195.134 90.5356 185.584 88.2259C175.984 86.098 167.834 80.0847 163.955 73.9435C159.807 67.8965 159.636 62.7114 159.452 62.8394C159.66 62.8798 158.1 57.991 159.954 50.6915C161.52 43.4123 167.106 34.5303 175.335 28.6854C183.454 22.6923 193.605 19.5543 202.232 19.1368C210.907 18.6318 217.901 20.7058 221.18 22.0593C233.16 27.2579 239.315 33.9311 242.442 45.5334C240.263 33.6752 234.066 25.9043 221.664 20.5711C218.274 19.1705 211.067 17.0359 202.158 17.5544C193.305 17.9854 182.904 21.1906 174.534 27.3723C166.066 33.3856 160.223 42.5975 158.565 50.2808C156.619 57.9776 158.259 63.1828 158.045 63.1289C158.228 62.9942 158.43 68.4958 162.799 74.8795C166.898 81.3641 175.396 87.5862 185.278 89.7747C195.116 92.1585 205.866 90.9531 214.254 87.7882C222.71 84.6839 228.712 79.7951 231.398 77.1218C241.169 67.1692 244.357 57.4456 242.442 45.5334Z" fill="#1F1D1D"/>
<path d="M178.695 68.2673C178.695 69.8295 177.544 71.0955 176.125 71.0955C174.705 71.0955 173.555 69.8295 173.555 68.2673C173.555 66.705 174.705 65.439 176.125 65.439C177.544 65.439 178.695 66.705 178.695 68.2673Z" fill="#100F0D"/>
<path d="M178.694 68.2673C178.131 69.0821 177.813 69.2707 177.335 69.7757C177.109 70.0518 176.008 70.577 175.157 69.9441C174.282 69.3582 174.313 68.2269 174.27 68.2673C174.313 68.3077 174.282 67.1765 175.157 66.5906C176.008 65.9576 177.109 66.4829 177.335 66.759C177.813 67.264 178.131 67.4525 178.694 68.2673C179.061 67.4323 179.134 66.4694 178.284 65.5805C177.911 65.0553 175.916 64.0924 174.38 65.2573C172.82 66.3078 172.869 68.3481 172.838 68.2673C172.869 68.1865 172.82 70.2269 174.386 71.2773C175.916 72.4423 177.911 71.4794 178.284 70.9541C179.134 70.0653 179.067 69.1023 178.694 68.2673Z" fill="#1F1D1D"/>
<path d="M155.096 46.2C153.468 57.2367 172.49 49.7487 189.279 58.166C206.068 66.5765 205.786 75.3035 200.592 80.9263C195.397 86.549 186.556 80.9263 186.556 80.9263C186.556 80.9263 193.335 96.138 205.315 85.6333C217.295 75.1285 207.126 61.2703 207.126 61.2703C207.126 61.2703 222.802 74.4955 218.017 80.9263C213.239 87.3504 228.235 82.7714 233.142 77.5796C238.049 72.3811 249.992 66.5967 242.876 39.6547C234.353 7.39292 162.554 -4.32392 155.096 46.2Z" fill="#C99155"/>
<path d="M155.095 46.2001C154.679 48.2338 155.334 50.5704 157.047 51.5064C158.632 52.4626 160.382 52.8868 162.064 53.1494C165.442 53.6948 168.727 53.8902 172.068 54.3144C178.737 55.0955 185.81 56.4894 193.611 61.4993C195.624 62.8663 198.982 64.8865 201.497 68.819C204.538 72.5024 202.776 79.8356 197.459 82.1251C194.846 83.1083 191.696 82.5022 188.82 81.2228L187.743 80.7042L187.223 80.4147L186.972 80.2665L186.942 80.2531C186.489 80.711 187.921 79.1892 185.914 81.2834L185.956 81.3709L186.036 81.5325C186.452 82.3675 186.917 83.1554 187.437 83.9096C188.465 85.4247 189.695 86.8253 191.157 87.9566C194.051 90.3134 198.254 90.7444 201.552 89.0677C204.813 87.4112 207.658 84.9062 209.635 81.6201C211.574 78.334 212.308 74.1994 211.617 70.5093C211.354 68.644 210.773 66.8932 210.106 65.2501C209.769 64.4218 209.378 63.634 208.974 62.8731L208.325 61.7485L207.983 61.2031L207.805 60.9337L207.701 60.7923C208.588 59.7755 206.465 62.1323 206.704 61.9034L206.728 61.9236L206.783 61.9707C211.446 66.1322 215.563 70.5968 217.521 75.1085C218.561 77.4855 218.341 79.3844 217.075 81.0409C216.75 81.4652 216.512 82.1184 216.383 82.7985C216.346 83.7547 217.032 84.4685 217.582 84.6233C218.659 85.0072 219.424 84.8186 220.164 84.758C223.015 84.3203 224.441 83.5728 224.459 83.62C224.27 83.6469 231.043 81.8288 237.822 74.2129C241.56 70.846 245.115 65.0481 245.598 58.0449C246.278 51.0956 244.907 43.7692 242.619 36.564C236.5 22.1469 221.731 15.3524 210.197 12.6117C198.236 9.84414 188.073 11.4266 183.283 12.7869C165.436 18.0595 157.371 29.9918 155.095 46.2001C158.375 30.1332 166.366 19.4803 183.619 14.3222C188.269 13.0023 198.193 11.4536 209.904 14.1673C221.204 16.8002 235.595 23.6216 241.291 37.1902C243.457 43.9981 244.84 51.3649 244.173 57.8766C243.683 64.5094 240.465 69.7483 236.874 73.0277C230.033 80.6504 223.988 82.0174 224.007 82.1251C224.007 82.0713 222.575 82.7985 219.999 83.1891C219.393 83.2699 218.586 83.3507 218.078 83.1419C217.656 83.0813 217.735 82.8658 218.274 81.9096C219.669 80.3474 220.128 76.866 218.837 74.4755C216.628 69.4453 212.461 65.0346 207.665 60.725L207.609 60.6711L207.579 60.6509C207.781 60.3883 205.682 62.7788 206.582 61.7822L206.661 61.89L206.82 62.1324L207.132 62.6374L207.738 63.6811C208.117 64.4017 208.484 65.1356 208.796 65.91C209.427 67.4453 209.959 69.075 210.197 70.7786C210.822 74.1657 210.161 77.7885 208.423 80.7581C204.985 86.4953 197.441 91.2494 191.977 86.6502C190.674 85.6401 189.548 84.3607 188.594 82.9601C188.11 82.2665 187.676 81.5258 187.309 80.7784L187.241 80.6437L187.211 80.5831C185.186 82.6369 186.672 81.1622 186.226 81.6268L186.269 81.6538L186.556 81.8221L187.125 82.1385L188.275 82.6907C191.341 84.0442 194.773 84.785 197.93 83.6268C204.287 81.041 206.147 72.2331 202.696 67.9504C199.876 63.5667 196.413 61.5667 194.32 60.1324C186.311 54.9945 178.871 53.6679 172.166 53.1629C168.782 52.8666 165.491 52.8397 162.144 52.4828C159.127 52.3212 154.276 51.1428 155.095 46.2001Z" fill="#1F1D1D"/>
<path d="M210.039 65.9099C210.039 65.9099 219.993 60.4757 222.135 68.4149C224.276 76.3473 215.147 79.5392 211.856 77.4853C211.856 77.4853 216.2 72.8592 210.039 65.9099Z" fill="#FBC589"/>
<path d="M210.938 65.4788C212.865 65.2095 214.125 65.0479 216.242 64.893C217.343 64.6169 221.1 65.4047 221.547 69.1892C222.397 72.6773 219.968 75.0139 220.017 74.9129C220.103 74.886 217.851 77.2159 214.615 77.2832C213.85 77.3236 213.055 77.2159 212.449 76.9062L212.216 76.7984H212.21C212.504 79.3168 212.296 77.492 212.357 78.0509L212.363 78.0442L212.388 78.024L212.424 77.9768L212.492 77.9028L212.608 77.7479L213.018 77.1216C213.263 76.7041 213.458 76.2664 213.611 75.8355C214.223 74.0914 214.07 72.509 213.929 71.7952C213.36 69.1016 212.216 67.9838 210.693 66.7178C211.531 68.637 212.082 69.8962 212.522 72.078C212.632 72.6638 212.742 73.9029 212.265 75.2631C212.149 75.5998 211.99 75.9365 211.806 76.2665L211.494 76.7378L211.415 76.8388L211.372 76.8927L211.36 76.9062L211.354 76.9129C211.415 77.4785 211.207 75.6604 211.5 78.1788L211.507 78.1856L211.849 78.3539C212.779 78.8119 213.752 78.9128 214.664 78.8657C218.433 78.7916 221.063 76.0644 220.996 76.0644C220.898 76.2799 224.013 73.1487 222.954 68.8458C222.611 66.8795 221.394 64.8256 219.779 64.0378C218.212 63.2162 216.83 63.3375 216.187 63.324C213.777 63.5193 212.541 64.2735 210.938 65.4788Z" fill="#1F1D1D"/>
<path d="M212.082 87.7411C212.082 87.7411 176.124 151.483 158.314 168.426C152.991 173.49 145.82 175.638 147.9 178.809C149.987 181.988 157.157 187.759 160.504 177.779C163.857 167.8 160.987 169.214 160.987 169.214C160.987 169.214 194.375 133.444 200.592 110.939C202.348 104.589 202.586 127.423 202.586 127.423L210.038 126.521C210.038 126.521 206.716 97.1213 217.503 85.6334C220.501 82.4415 212.082 87.7411 212.082 87.7411Z" fill="#FBC589"/>
<path d="M212.082 87.7414C204.96 99.2495 200.09 107.027 191.591 120.791C186.74 127.915 173.616 151.342 157.353 168.271C155.236 170.197 152.825 171.685 150.488 173.281C149.344 174.143 148.108 174.817 147.178 176.365C146.664 177.14 146.756 178.534 147.301 179.241C147.729 179.88 148.182 180.439 148.683 180.938C150.623 182.897 153.113 184.493 155.823 184.082C158.607 183.55 160.033 180.924 160.834 178.931C161.642 176.816 162.168 174.938 162.554 173.14C162.737 172.244 162.86 171.382 162.835 170.493C163.006 169.807 162.211 167.961 160.914 168.413C160.84 168.433 160.804 168.44 160.706 168.487C160.516 168.217 162.193 170.924 161.489 169.773L161.501 169.759L161.52 169.739L161.556 169.699L161.703 169.544L161.985 169.234L162.492 168.682C162.804 168.339 163.068 168.049 163.282 167.813C163.71 167.335 163.936 167.079 163.936 167.079C163.82 166.999 178.804 151.309 191.848 130.831C195.042 125.68 198.114 120.198 200.243 114.367C200.659 113.195 201.509 110.778 201.326 110.609C200.194 110.098 201.301 111.424 201.105 111.949L201.338 114.124C201.577 117.034 201.687 119.909 201.766 122.65C201.809 124.017 201.834 125.357 201.858 126.663L201.864 127.154L201.87 127.39V127.424C201.693 127.269 203.394 128.905 202.684 128.212L202.739 128.205L202.849 128.191L203.718 128.084L205.419 127.875C206.526 127.74 207.603 127.612 208.643 127.484L209.408 127.39L209.787 127.343L209.977 127.323L210.069 127.309L210.112 127.303C211.384 125.532 210.467 126.798 210.748 126.4V126.373L210.601 124.798C210.277 120.65 210.259 117.283 210.277 115.047C210.411 106.798 211.237 100.313 213.061 94.5695C213.978 91.7076 215.214 89.0343 217.001 86.6976C217.399 85.9906 218.047 85.8896 218.329 84.5765C217.172 84.1859 216.793 84.9805 216.053 85.2229C214.737 85.9771 213.434 86.8323 212.082 87.7414C213.489 86.94 214.847 86.1926 216.193 85.5462C216.756 85.2229 217.772 84.9131 217.949 84.7987C217.668 84.9603 217.032 85.7616 216.554 86.2532C214.566 88.536 213.146 91.2497 212.082 94.1587C209.959 100.004 208.992 106.643 208.845 115.027C208.821 117.303 208.839 120.71 209.169 124.932L209.316 126.562L209.322 126.589C209.604 126.205 208.686 127.491 209.959 125.734H209.91L209.818 125.747L209.628 125.774L209.249 125.814L208.484 125.909C207.45 126.037 206.373 126.165 205.26 126.299L203.559 126.508L202.69 126.609L202.586 126.623L202.531 126.629C201.809 125.936 203.479 127.592 203.308 127.404V127.377V127.128L203.296 126.636C203.277 125.323 203.247 123.976 203.21 122.596C203.125 119.835 203.021 116.953 202.776 113.976C202.708 113.229 202.635 112.475 202.525 111.707C202.47 111.323 202.409 110.933 202.317 110.522C201.962 110.219 202.727 109.492 200.91 109.088C199.172 111.343 199.723 112.205 198.903 113.781C196.841 119.424 193.825 124.838 190.661 129.929C177.739 150.225 162.786 165.908 162.915 165.975C162.915 165.975 162.688 166.231 162.266 166.702C162.052 166.938 161.789 167.228 161.477 167.564L160.975 168.116L160.7 168.419L160.553 168.574L160.516 168.615L160.498 168.635L160.492 168.642C159.782 167.497 161.452 170.211 161.275 169.935C161.238 169.948 161.275 169.941 161.269 169.941C161.244 169.382 161.624 171.241 161.153 172.803C160.81 174.426 160.259 176.372 159.519 178.291C158.791 180.143 157.567 182.183 155.591 182.52C153.639 182.857 151.4 181.571 149.668 179.786C148.781 178.803 147.851 177.847 148.426 177.153C148.946 176.231 150.164 175.396 151.259 174.621C153.535 173.059 156.025 171.53 158.265 169.497C174.901 152.171 187.871 128.878 192.772 121.68C201.271 107.882 205.731 99.7814 212.082 87.7414Z" fill="#1F1D1D"/>
<path d="M210.038 123.666C210.038 123.666 204.978 109.687 200.591 110.939C193.268 113.027 195.911 121.538 198.383 130.844C199.221 133.996 190.019 147.093 182.848 194.984C181.563 203.57 183.234 329.903 159.543 335.445C135.853 340.994 304.206 360.993 318.627 331.028C321.87 324.3 312.815 303.533 301.575 308.395C301.575 308.395 318.798 325.203 295.359 328.395C276 331.034 271.754 331.553 258.061 319.856C244.368 308.166 216.695 240.862 222.458 212.606C230.804 171.665 208.209 158.096 204.501 147.558C200.414 135.922 210.038 134.231 210.038 123.666Z" fill="white"/>
<path d="M210.038 123.665C208.49 119.558 206.807 115.598 204.207 112.474C201.497 108.474 195.892 112.076 195.654 116.13C194.638 124.554 200.622 131.456 195.556 138.783C190.104 153.55 186.115 169.9 182.738 190.99C180.976 202.653 181.747 225.811 179.752 254.012C178.84 268.086 177.598 283.446 175.004 299.001C173.658 306.745 172.037 314.61 169.29 321.977C167.907 325.626 166.2 329.216 163.722 331.916C162.486 333.242 161.012 334.273 159.39 334.67C158.558 335.209 157.322 334.468 156.576 336.858C157.475 338.852 158.417 338.468 159.292 339.04C216.621 351.68 269.827 347.04 269.71 347.289C269.655 346.932 283.048 347.531 303.086 342.111C307.938 340.468 313.646 338.65 317.929 333.498C320.297 330.993 320.346 326.569 319.502 323.337C318.7 319.882 317.262 316.556 315.231 313.58C313.224 310.657 310.44 307.883 306.782 307.122C304.983 306.63 303.092 307.041 301.342 307.647C301.342 307.364 300.926 310.192 301.134 309.021L301.189 309.075L301.3 309.189L301.526 309.431L301.973 309.923L302.841 310.94C303.404 311.633 303.943 312.354 304.438 313.108C306.359 315.977 308.054 320.024 306.035 322.899C304.053 325.707 300.284 326.684 296.876 327.35C289.773 328.253 282.382 329.808 275.309 328.805C268.26 327.66 262.136 322.549 256.844 317.586C247.329 305.99 241.419 291.614 236.182 278.88C225.921 253.036 221.638 229.925 222.471 218.511C223.817 208.235 225.805 198.438 224.685 189.522C223.865 180.586 221.069 172.641 217.105 165.927C213.409 159.025 207.572 153.968 204.617 146.87C203.216 143.22 203.553 138.924 205.767 135.49C207.841 132.11 210.209 128.265 210.038 123.665C210.081 128.278 207.664 131.948 205.492 135.301C203.155 138.675 202.659 143.301 204.048 147.092C207.015 154.641 212.693 159.664 216.218 166.546C220.011 173.206 222.623 180.95 223.364 189.664C224.379 198.512 222.458 207.609 221.039 218.417C220.194 230.248 224.551 253.514 234.86 279.506C240.171 292.368 245.971 306.677 255.834 318.724C261.365 323.889 267.477 329.067 275.095 330.374C282.62 331.411 289.883 329.822 297.108 328.912C300.645 328.165 304.61 327.364 307.198 323.835C309.81 319.855 307.565 315.128 305.601 312.179C305.075 311.378 304.506 310.61 303.912 309.883L303 308.812L302.529 308.293L302.285 308.038L302.162 307.91L302.101 307.849C302.272 306.637 301.777 309.411 301.869 309.122C303.386 308.623 304.977 308.246 306.512 308.677C309.627 309.304 312.209 311.782 314.087 314.536C317.525 319.862 320.566 327.795 316.828 332.481C313.035 337.101 307.436 339.02 302.695 340.589C282.981 345.936 269.551 345.37 269.631 345.713C269.894 345.498 216.45 350.023 159.769 337.545C158.962 337.39 158.093 336.515 157.787 336.71C157.965 337.094 158.864 336.266 159.69 336.219C161.648 335.747 163.361 334.522 164.725 333.061C167.454 330.071 169.192 326.333 170.623 322.589C173.438 315.027 175.065 307.102 176.424 299.29C179.036 283.627 180.278 268.234 181.196 254.12C183.178 225.939 182.432 202.492 184.151 191.259C187.504 170.236 191.34 153.981 196.535 139.207C197.177 137.355 197.856 135.537 198.438 133.638C199.368 131.679 198.45 129.308 197.979 127.658C197.03 123.935 195.825 120.096 196.253 116.245C196.412 112.588 201.35 109.066 203.981 112.73C206.593 115.699 208.392 119.612 210.038 123.665Z" fill="#1F1D1D"/>
<path d="M210.038 15.9517C210.038 15.9517 182.34 27.783 184.298 19.4533C186.256 11.1302 182.506 0.255077 181.263 6.43C180.021 12.6117 172.422 15.716 172.422 15.716C180.021 12.6117 172 11.2581 172.404 3.65565C172.808 -3.94685 165.392 5.04958 164.573 10.2481C163.747 15.4533 163.545 22.2276 162.462 23.5609C161.379 24.8942 196.205 40.5099 210.038 15.9517Z" fill="white"/>
<path d="M208.032 16.7736C201.412 18.7062 196.896 20.4368 188.936 21.5815C188.018 21.6287 185.883 21.8307 185.057 20.7937C184.69 19.8913 185.902 16.0867 185.553 13.2989C185.485 11.7636 185.326 10.161 184.984 8.53139C184.286 7.02302 184.923 4.9894 182.029 3.85139C179.783 5.95234 180.762 7.39339 179.624 8.71322C178.878 10.0533 177.825 11.2182 176.657 12.1946C175.482 13.1576 174.203 13.9858 172.906 14.6322L172.423 14.8679L172.184 14.9689L172.172 14.9757C173.181 17.9386 172.459 15.7904 172.692 16.4503L172.723 16.4369L172.79 16.41L172.924 16.3493L173.965 15.878C174.65 15.4739 175.36 15.1642 175.965 14.3158C177.177 11.9051 175.231 10.5852 174.84 9.56843C174.142 8.47082 173.628 7.41357 173.389 6.36309C172.71 4.36314 173.683 2.34973 172.423 0.470989C170.361 -0.720898 169.78 0.760584 169.78 0.477762C169.7 0.430626 167.081 2.33626 164.983 6.73345C163.808 8.96908 163.594 12.0195 163.257 14.9622C163.092 16.484 162.939 18.0598 162.725 19.6422C162.603 20.4166 162.505 21.2449 162.303 21.9587C162.223 22.356 162.107 22.6792 161.991 22.8744C161.905 23.063 162.064 22.7263 161.783 23.3458C161.709 24.4098 161.997 24.1741 162.058 24.4097C162.321 24.7195 162.456 24.7532 162.664 24.9283C174.087 31.3389 188.104 30.955 192.491 29.6958C200.653 27.6891 205.028 24.1336 208.827 17.8981C204.269 23.5141 200.023 26.2144 192.222 28.147C188.141 29.3928 174.203 29.6284 163.429 23.5882C163.337 23.5074 163.111 23.3526 163.123 23.3391C163.306 23.1977 162.64 23.6488 162.633 23.6825C163.361 24.504 162.951 23.7027 163.166 23.7902C163.465 23.2785 163.6 22.8206 163.686 22.4031C163.93 21.5209 164.016 20.7062 164.145 19.8779C164.365 18.2416 164.518 16.6591 164.683 15.1507C165.038 12.0801 165.215 9.40679 166.255 7.45398C168.238 3.35308 170.557 1.71673 170.495 1.83794C170.41 1.84468 171.242 1.4003 171.413 1.58884C171.921 1.97941 171.376 4.23519 172.007 6.78731C172.215 9.16435 175.421 12.1071 174.815 13.373C174.57 13.7569 173.946 14.1138 173.365 14.437L172.398 14.8747L172.282 14.9285L172.221 14.9555L172.19 14.9689C172.404 15.6356 171.676 13.4875 172.674 16.4571L172.692 16.4503L172.967 16.3292L173.5 16.0733C174.895 15.3797 176.247 14.5043 177.525 13.4538C178.798 12.3966 179.979 11.1105 180.854 9.54147C181.704 8.07349 182.237 5.72336 182.279 5.13752C183.228 6.7469 184.115 10.7064 184.109 13.3663C184.164 14.814 184.084 16.1945 183.919 17.4672C183.876 18.6187 183.069 19.9116 183.84 21.6422C186.024 23.9653 187.951 22.9889 189.04 23.1505C197.398 21.925 201.675 19.6557 208.032 16.7736Z" fill="#1F1D1D"/>
<path d="M0 365C5.54875 360.253 11.612 359.256 17.6092 358.3C23.7166 357.499 30.2284 357.317 38.5304 357.498C43.0305 357.559 52.0275 358.098 63.0277 358.751C74.0695 359.795 87.0711 357.781 99.4363 357.357C124.228 355.754 146.799 355.788 146.799 355.808C146.799 355.822 169.369 355.862 194.179 357.047C218.983 358.179 246.051 359.559 255.069 359.855C271.717 360.461 281.176 360.387 295.089 360.084C281.176 359.579 271.748 359.216 255.112 358.583C246.1 358.273 219.044 356.899 194.222 355.768C169.4 354.589 146.799 354.549 146.799 354.536C146.805 354.515 124.185 354.482 99.3751 356.078C86.9426 356.502 74.0573 358.509 63.0834 357.472C52.1077 356.818 43.0739 356.286 38.5555 356.226C30.215 356.051 23.6426 356.354 17.493 357.377C11.4683 358.542 5.32481 359.916 0 365Z" fill="#1F1D1D"/>
</svg>
