<svg width="40" height="40" viewBox="0 0 40 40" fill="none" xmlns="http://www.w3.org/2000/svg">
<path d="M7.55556 6.3335C5.59182 6.3335 4 7.9335 4 9.88905V34.7779C4 36.7335 5.59182 38.3335 7.55556 38.3335H18.2222H21.7778H32.4444C34.4089 38.3335 36 36.7335 36 34.7779V9.88905C36 7.9335 34.4089 6.3335 32.4444 6.3335H21.7778H18.2222H7.55556Z" fill="#BDC3C7"/>
<path d="M7.55556 4.55566C5.59182 4.55566 4 6.14749 4 8.11122V33.0001C4 34.9646 5.59182 36.5557 7.55556 36.5557H18.2222H21.7778H32.4444C34.4089 36.5557 36 34.9646 36 33.0001V8.11122C36 6.14749 34.4089 4.55566 32.4444 4.55566H21.7778H18.2222H7.55556Z" fill="#ECF0F1"/>
<path d="M7.55556 4.55566C5.59182 4.55566 4 6.14749 4 8.11122V13.4446V15.2223H36V13.4446V8.11122C36 6.14749 34.4089 4.55566 32.4444 4.55566H21.7778H18.2222H7.55556Z" fill="#E74C3C"/>
<path d="M11.9998 9.00016C11.9998 9.35035 11.9309 9.69712 11.7968 10.0207C11.6628 10.3442 11.4664 10.6382 11.2188 10.8858C10.9712 11.1334 10.6772 11.3298 10.3537 11.4638C10.0301 11.5979 9.68336 11.6668 9.33317 11.6668C8.98298 11.6668 8.63622 11.5979 8.31268 11.4638C7.98915 11.3298 7.69518 11.1334 7.44755 10.8858C7.19993 10.6382 7.0035 10.3442 6.86949 10.0207C6.73548 9.69712 6.6665 9.35035 6.6665 9.00016C6.6665 8.64997 6.73548 8.30321 6.86949 7.97967C7.0035 7.65614 7.19993 7.36217 7.44755 7.11454C7.69518 6.86692 7.98915 6.6705 8.31268 6.53648C8.63622 6.40247 8.98298 6.3335 9.33317 6.3335C9.68336 6.3335 10.0301 6.40247 10.3537 6.53648C10.6772 6.6705 10.9712 6.86692 11.2188 7.11454C11.4664 7.36217 11.6628 7.65614 11.7968 7.97967C11.9309 8.30321 11.9998 8.64997 11.9998 9.00016V9.00016Z" fill="#C0392B"/>
<path d="M9.33344 1.00024C8.35157 1.00024 7.55566 1.79616 7.55566 2.77802V8.11135C7.55566 9.09322 8.35157 9.88913 9.33344 9.88913C10.3153 9.88913 11.1112 9.09322 11.1112 8.11135V2.77802C11.1112 1.79616 10.3153 1.00024 9.33344 1.00024Z" fill="#BDC3C7"/>
<path d="M33.3333 9.00016C33.3333 9.35035 33.2644 9.69712 33.1303 10.0207C32.9963 10.3442 32.7999 10.6382 32.5523 10.8858C32.3047 11.1334 32.0107 11.3298 31.6872 11.4638C31.3636 11.5979 31.0169 11.6668 30.6667 11.6668C30.3165 11.6668 29.9697 11.5979 29.6462 11.4638C29.3226 11.3298 29.0287 11.1334 28.781 10.8858C28.5334 10.6382 28.337 10.3442 28.203 10.0207C28.069 9.69712 28 9.35035 28 9.00016C28 8.64997 28.069 8.30321 28.203 7.97967C28.337 7.65614 28.5334 7.36217 28.781 7.11454C29.0287 6.86692 29.3226 6.6705 29.6462 6.53648C29.9697 6.40247 30.3165 6.3335 30.6667 6.3335C31.0169 6.3335 31.3636 6.40247 31.6872 6.53648C32.0107 6.6705 32.3047 6.86692 32.5523 7.11454C32.7999 7.36217 32.9963 7.65614 33.1303 7.97967C33.2644 8.30321 33.3333 8.64997 33.3333 9.00016V9.00016Z" fill="#C0392B"/>
<path d="M30.6669 1C29.6856 1 28.8892 1.71111 28.8892 2.77778V8.11111C28.8892 9 29.6856 9.88889 30.6669 9.88889C31.6483 9.88889 32.4447 9 32.4447 8.11111V2.77778C32.4447 1.71111 31.6483 1 30.6669 1Z" fill="#BDC3C7"/>
<path d="M7.55566 18.7778V22.3334H11.1112V18.7778H7.55566ZM12.889 18.7778V22.3334H16.4446V18.7778H12.889ZM18.2223 18.7778V22.3334H21.7779V18.7778H18.2223ZM23.5557 18.7778V22.3334H27.1112V18.7778H23.5557ZM28.889 18.7778V22.3334H32.4446V18.7778H28.889Z" fill="#BDC3C7"/>
<path d="M7.55566 24.1111V27.6666H11.1112V24.1111H7.55566ZM12.889 24.1111V27.6666H16.4446V24.1111H12.889ZM18.2223 24.1111V27.6666H21.7779V24.1111H18.2223ZM23.5557 24.1111V27.6666H27.1112V24.1111H23.5557ZM28.889 24.1111V27.6666H32.4446V24.1111H28.889Z" fill="#BDC3C7"/>
<path d="M7.55566 29.4446V33.0001H11.1112V29.4446H7.55566ZM12.889 29.4446V33.0001H16.4446V29.4446H12.889ZM18.2223 29.4446V33.0001H21.7779V29.4446H18.2223ZM23.5557 29.4446V33.0001H27.1112V29.4446H23.5557ZM28.889 29.4446V33.0001H32.4446V29.4446H28.889Z" fill="#BDC3C7"/>
</svg>
