<svg width="41" height="41" viewBox="0 0 41 41" fill="none" xmlns="http://www.w3.org/2000/svg">
<g clip-path="url(#clip0)">
<path d="M36.8653 7.14453C33.4062 2.95703 27.3526 1.45703 21.9786 3.39453L21.7315 2.64453C21.4844 2.01953 21.1138 1.58203 20.6814 1.45703C20.4961 1.39453 20.0637 1.39453 19.6931 1.70703L19.5078 1.89453C19.5078 1.89453 19.5078 1.95703 19.446 1.95703L19.5695 1.39453V1.33203C19.5695 1.33203 19.5695 1.33203 19.5695 1.26953C19.5695 1.20703 19.5695 1.20703 19.5078 1.14453C19.5078 1.08203 19.446 1.08203 19.3842 1.08203C19.3842 1.08203 19.3842 1.08203 19.3225 1.08203H19.2607L17.037 1.01953C16.9752 1.01953 16.9134 1.01953 16.8516 1.08203L14.1337 3.33203C14.072 3.39453 14.072 3.45703 14.0102 3.51953L13.5778 5.76953C13.5778 5.83203 13.5778 5.95703 13.6396 6.01953C13.7013 6.08203 13.7631 6.08203 13.8867 6.08203H14.6279C14.5661 6.14453 14.5044 6.14453 14.4426 6.20703L14.2573 6.39453C13.8249 6.76953 13.8249 7.14453 13.8249 7.33203C13.8867 7.76953 14.1955 8.20703 14.8132 8.58203L15.4927 8.95703C14.6279 10.457 14.072 12.207 13.8249 13.957V14.0195C10.7364 14.0195 7.77137 15.082 5.42408 17.1445C-0.135271 21.8945 -0.876518 30.2695 3.81805 35.8945C6.41241 39.0195 10.1804 40.6445 13.8867 40.6445C16.8516 40.6445 19.8784 39.6445 22.3492 37.5195C24.82 35.3945 26.4261 32.457 26.9202 29.2695V29.207C29.6382 29.207 32.2943 28.332 34.5798 26.6445C37.6066 24.3945 39.4597 21.1445 39.9538 17.3945C40.3245 13.707 39.2126 9.95703 36.8653 7.14453ZM19.1989 4.83203L18.8283 5.14453L19.0754 3.89453L19.1989 4.83203ZM17.7782 2.95703L18.8283 2.14453L18.3341 4.64453L17.7782 2.95703ZM17.84 5.01953L16.2957 4.14453L17.284 3.33203L17.84 5.01953ZM15.9251 3.64453L15.9869 2.83203L16.8516 2.95703L15.9251 3.64453ZM15.7398 4.64453L17.284 5.51953H14.6897L15.7398 4.64453ZM17.1605 1.58203H18.4577L17.5311 2.33203H17.4693L16.4192 2.20703L17.1605 1.58203ZM15.3074 3.14453L15.2456 4.20703L14.319 4.95703L14.6279 3.76953L15.3074 3.14453ZM17.7164 6.08203L17.3458 6.39453L16.2957 6.08203H17.7164ZM21.4844 36.582C16.4192 40.832 8.88324 40.207 4.68284 35.082C2.64441 32.582 1.65608 29.457 1.96493 26.2695C2.21201 23.082 3.75628 20.1445 6.16533 18.082C8.45084 16.1445 11.4158 15.1445 14.3808 15.2695C17.7164 15.3945 20.8667 17.0195 22.9669 19.582C24.3259 21.207 25.1907 23.1445 25.5613 25.207C25.0671 25.1445 24.6347 25.082 24.1406 24.957C23.7699 23.332 23.0287 21.7695 21.9168 20.5195C20.6196 18.957 18.8901 17.832 16.9752 17.207C16.1104 16.957 15.1838 16.7695 14.319 16.7695V16.707C11.6629 16.582 9.13032 17.457 7.09189 19.207C2.58264 23.0195 2.0267 29.7695 5.79471 34.332C7.89491 36.832 10.9217 38.1445 13.9484 38.1445C16.3575 38.1445 18.7665 37.332 20.7432 35.6445C22.7198 33.957 24.017 31.6445 24.3877 29.082C24.82 29.1445 25.2524 29.207 25.6848 29.2695C25.1907 32.0195 23.7082 34.707 21.4844 36.582ZM26.7967 25.2695C26.4261 22.8945 25.4378 20.6445 23.8935 18.7695C22.1639 16.707 19.8784 15.2695 17.4076 14.5195V14.457C17.7164 12.1445 18.8901 10.0195 20.6814 8.51953C22.5963 6.89453 25.0054 6.14453 27.538 6.33203C30.0088 6.58203 32.2943 7.76953 33.9003 9.70703C35.5064 11.6445 36.2476 14.082 36.0623 16.6445C35.8152 19.1445 34.6416 21.457 32.7267 23.082C31.0589 24.457 28.9587 25.207 26.7967 25.2695ZM22.7198 24.332C21.4844 23.7695 20.4343 22.8945 19.5078 21.832C18.7665 20.8945 18.1488 19.832 17.7782 18.707C19.0136 19.2695 20.1255 20.1445 20.9903 21.207C21.7933 22.1445 22.3492 23.207 22.7198 24.332ZM13.7631 17.832C14.1337 20.582 15.2456 23.082 17.0987 25.0195C18.7665 26.832 20.8667 28.0195 23.0905 28.6445C23.0905 28.6445 23.0905 28.6445 23.0905 28.707C22.7816 31.0195 21.608 33.082 19.8166 34.582C15.8633 37.957 9.93334 37.3945 6.59772 33.3945C3.26211 29.3945 3.81805 23.3945 7.77137 20.0195C9.50094 18.6445 11.5394 17.8945 13.7631 17.832ZM38.6567 17.207C38.2243 20.582 36.5565 23.582 33.7768 25.582C28.9587 29.207 22.1639 28.582 18.0253 24.207C16.4192 22.5195 15.3691 20.332 14.9985 17.957C15.4309 18.0195 15.9251 18.082 16.3575 18.2695C16.7281 19.8945 17.4693 21.457 18.5812 22.707C19.8784 24.2695 21.5462 25.3945 23.4611 26.0195H23.5229C24.2641 26.2695 25.0054 26.3945 25.8084 26.457C25.9937 26.457 26.179 26.457 26.3643 26.457C26.3643 26.457 26.3643 26.457 26.4261 26.457C26.5496 26.457 26.6732 26.457 26.7967 26.457C29.2675 26.457 31.6766 25.582 33.5915 23.957C35.7534 22.1445 37.1124 19.5195 37.3595 16.6445C37.6066 13.7695 36.7418 11.0195 34.8887 8.83203C33.0973 6.64453 30.5029 5.26953 27.6615 5.01953C24.82 4.76953 22.1021 5.64453 19.9402 7.51953C17.9635 9.20703 16.6663 11.582 16.2339 14.207C15.8633 14.1445 15.4309 14.082 15.0603 14.0195C15.3074 12.207 15.9251 10.5195 16.9134 8.95703C16.9752 8.83203 17.037 8.64453 16.9752 8.45703C16.9134 8.26953 16.7899 8.20703 16.6046 8.14453L15.4309 7.45703C15.3074 7.39453 15.1838 7.33203 15.1221 7.26953L15.2456 7.20703C15.3074 7.14453 15.4309 7.14453 15.5545 7.20703C15.6162 7.20703 15.6162 7.26953 15.678 7.26953L17.284 7.76953C17.4693 7.83203 17.7164 7.76953 17.84 7.64453L20.249 5.58203C20.4343 5.45703 20.4961 5.20703 20.4343 5.01953L20.249 3.33203C20.249 3.26953 20.249 3.20703 20.1873 3.20703C20.1255 3.08203 20.1873 2.95703 20.249 2.89453L20.3726 2.83203C20.4343 2.89453 20.4961 3.01953 20.4961 3.14453L21.052 4.39453C21.1138 4.58203 21.2374 4.70703 21.3609 4.76953C21.4844 4.83203 21.6697 4.83203 21.8551 4.76953C26.8585 2.70703 32.6649 4.01953 35.9388 7.95703C38.1007 10.5195 39.0273 13.832 38.6567 17.207Z" fill="#C5C5C5"/>
</g>
<defs>
<clipPath id="clip0">
<rect width="40" height="40" fill="white" transform="translate(0.541992 0.644531)"/>
</clipPath>
</defs>
</svg>
