<svg width="40" height="40" viewBox="0 0 40 40" fill="none" xmlns="http://www.w3.org/2000/svg">
<path d="M28.0005 7L36.0001 9.12646V33.8937L28.0005 31.7673V7Z" fill="#F8E6C5"/>
<path d="M11.9995 7L19.9998 9.12646V33.8937L11.9995 31.7673V7Z" fill="#F8E6C5"/>
<path opacity="0.2" d="M28.0005 7L36.0001 9.12646V33.8937L28.0005 31.7673V7Z" fill="black"/>
<path opacity="0.2" d="M11.9995 7L19.9998 9.12646V33.8937L11.9995 31.7673V7Z" fill="black"/>
<path d="M27.9998 7L19.9995 9.12646V33.8937L27.9998 31.7673V7Z" fill="#F8E6C5"/>
<path d="M11.9996 7L4 9.12646V33.8937L11.9996 31.7673V7Z" fill="#F8E6C5"/>
<path d="M8.81023 12.9944L6.49854 15.3061" stroke="black" stroke-width="1.44942" stroke-linecap="round" stroke-linejoin="round"/>
<path d="M8.81023 15.3061L6.49854 12.9944" stroke="black" stroke-width="1.44942" stroke-linecap="round" stroke-linejoin="round"/>
<path d="M7.54492 14.2646H8.23502" stroke="black" stroke-width="1.44942" stroke-linecap="round" stroke-linejoin="round"/>
<path d="M10.5552 14.2646H22.3704C23.1685 14.2646 23.9339 14.5817 24.4982 15.146C25.0625 15.7103 25.3796 16.4757 25.3796 17.2738V17.2738C25.3796 18.0719 25.0625 18.8373 24.4982 19.4016C23.9339 19.9659 23.1685 20.2829 22.3704 20.2829H17.9349C17.1927 20.2831 16.4809 20.5781 15.9561 21.103C15.4313 21.628 15.1364 22.3398 15.1364 23.0821V23.0821C15.1364 23.8243 15.4313 24.5361 15.9561 25.061C16.4809 25.5858 17.1927 25.8806 17.9349 25.8806H30.5379" stroke="black" stroke-width="1.44942" stroke-linecap="round" stroke-linejoin="round" stroke-dasharray="1.51 2.51"/>
<path d="M31.6982 25.8816H32.3883" stroke="black" stroke-width="1.44942" stroke-linecap="round" stroke-linejoin="round"/>
<path d="M33.0835 24.7253L30.7725 27.037" stroke="black" stroke-width="1.44942" stroke-linecap="round" stroke-linejoin="round"/>
<path d="M33.0835 27.037L30.7725 24.7253" stroke="black" stroke-width="1.44942" stroke-linecap="round" stroke-linejoin="round"/>
<path d="M28.0005 7L36.0001 9.12646V33.8937L28.0005 31.7673V7Z" stroke="black" stroke-width="1.44942" stroke-linecap="round" stroke-linejoin="round"/>
<path d="M27.9998 7L19.9995 9.12646V33.8937L27.9998 31.7673V7Z" stroke="black" stroke-width="1.44942" stroke-linecap="round" stroke-linejoin="round"/>
<path d="M11.9996 7L4 9.12646V33.8937L11.9996 31.7673V7Z" stroke="black" stroke-width="1.44942" stroke-linecap="round" stroke-linejoin="round"/>
<path d="M11.9995 7L19.9998 9.12646V33.8937L11.9995 31.7673V7Z" stroke="black" stroke-width="1.44942" stroke-linecap="round" stroke-linejoin="round"/>
</svg>
